<svg width="12" height="15" viewBox="0 0 12 15" fill="none" xmlns="http://www.w3.org/2000/svg">
<path d="M5.23125 7.97911L3.75 6.58616C3.6375 6.48037 3.49875 6.42747 3.3375 6.42747C3.17625 6.42747 3.0375 6.48037 2.925 6.58616C2.8125 6.69195 2.75625 6.82243 2.75625 6.97407C2.75625 7.12571 2.8125 7.25618 2.925 7.36198L4.78125 9.10757C4.89375 9.21336 5.02875 9.26626 5.18625 9.26626C5.34375 9.26626 5.47875 9.21336 5.59125 9.10757L9.06 5.8456C9.16125 5.75039 9.21 5.62697 9.21 5.47533C9.21 5.32369 9.16125 5.20026 9.06 5.10505C8.95875 5.00984 8.83125 4.96399 8.67375 4.96399C8.51625 4.96399 8.38875 5.00984 8.2875 5.10505L5.23125 7.97911ZM6 14.1504C5.95125 14.1504 5.9025 14.1504 5.8575 14.1398C5.8125 14.1292 5.77125 14.1257 5.73375 14.1116C4.0575 13.6426 2.685 12.6728 1.60875 11.2093C0.53625 9.75291 0 8.14485 0 6.3922V2.93628C0 2.71412 0.0675 2.50958 0.20625 2.32621C0.345 2.14283 0.5175 2.01236 0.73125 1.92772L5.60625 0.22092C5.745 0.175076 5.87625 0.150391 6 0.150391C6.12375 0.150391 6.255 0.175076 6.39375 0.22092L11.2687 1.93125C11.4825 2.01236 11.655 2.14636 11.7938 2.32974C11.9325 2.51311 12 2.71412 12 2.93981V6.39573C12 8.14838 11.4637 9.75644 10.3875 11.2199C9.31125 12.6834 7.93875 13.6496 6.2625 14.1222L6 14.1574V14.1504ZM6 13.0925C7.43625 12.6446 8.61 11.8018 9.5175 10.5605C10.425 9.31916 10.8787 7.92974 10.8787 6.38868V2.93628L6.00375 1.20833L1.125 2.93628V6.3922C1.125 7.93326 1.57875 9.32268 2.48625 10.564C3.39375 11.8053 4.56375 12.6481 6.00375 13.096L6 13.0925Z" fill="#8462F6"/>
</svg>
