<svg width="28" height="20" viewBox="0 0 28 20" fill="none" xmlns="http://www.w3.org/2000/svg">
<g clip-path="url(#clip0_161_812)">
<mask id="mask0_161_812" style="mask-type:luminance" maskUnits="userSpaceOnUse" x="0" y="0" width="28" height="20">
<path d="M27.5 0H0V19.9959H27.5V0Z" fill="white"/>
</mask>
<g mask="url(#mask0_161_812)">
<path d="M27.5 16.3774C27.4241 11.552 26.2659 6.80679 24.1123 2.50032C22.2154 0.99376 19.9031 0.1204 17.494 -0.000264923L17.1637 0.381061C19.3081 0.958029 21.3064 1.98837 23.0271 3.40414C20.8342 2.18226 18.4262 1.40613 15.9389 1.11911C14.3566 0.9428 12.7587 0.958615 11.1798 1.16656C11.0443 1.17066 10.9087 1.18647 10.776 1.214C8.92719 1.42605 7.12356 1.93155 5.43117 2.71178C4.55977 3.12005 4.04122 3.40238 4.04122 3.40238C5.8547 1.91574 7.97062 0.851422 10.2378 0.284997L10.0072 -0.000850677C7.59865 0.119815 5.2869 0.99376 3.39057 2.49973C1.23583 6.80679 0.076479 11.552 0 16.3774C1.64893 18.7163 4.34076 20.073 7.18092 19.9956C7.18092 19.9956 8.05231 18.9296 8.75569 18.0199C7.10154 17.5976 5.64496 16.6041 4.63799 15.2118C4.63799 15.2118 4.8738 15.3781 5.29675 15.6201C5.3234 15.6493 5.35585 15.6734 5.39119 15.6909C5.4613 15.7384 5.52561 15.7618 5.60267 15.8092C6.15656 16.1185 6.73073 16.3886 7.32171 16.6182C8.44224 17.0651 9.60043 17.4084 10.7824 17.6421C12.7958 18.0328 14.8642 18.041 16.8804 17.6655C18.0531 17.4581 19.1986 17.1143 20.2936 16.6416C21.2455 16.2779 22.154 15.8063 23.0011 15.2364C21.9558 16.6598 20.446 17.6632 18.7391 18.0691C19.4448 18.9735 20.2936 19.9974 20.2936 19.9974C23.139 20.07 25.836 18.7152 27.4977 16.3792M9.34782 14.1633C7.96656 14.0965 6.89586 12.9185 6.94626 11.5215C6.88717 10.1222 7.96077 8.93952 9.34492 8.87977C9.34608 8.87977 9.34724 8.87977 9.34782 8.87977C10.7239 8.92898 11.7998 10.0976 11.7511 11.4887C11.7511 11.4999 11.7505 11.511 11.75 11.5221C11.8091 12.9215 10.7355 14.1041 9.3513 14.1639C9.35014 14.1639 9.34898 14.1639 9.3484 14.1639M17.9424 14.1639C16.5612 14.0971 15.4905 12.9191 15.5409 11.5221C15.4818 10.1227 16.5554 8.9401 17.9395 8.88036C17.9407 8.88036 17.9419 8.88036 17.9424 8.88036C19.3266 8.9401 20.4008 10.1227 20.3417 11.5215C20.4008 12.9209 19.3272 14.1035 17.943 14.1633C17.9419 14.1633 17.9407 14.1633 17.9401 14.1633" fill="#8462F6"/>
</g>
</g>
<defs>
<clipPath id="clip0_161_812">
<rect width="27.5" height="20" fill="white"/>
</clipPath>
</defs>
</svg>
