<svg width="8" height="16" viewBox="0 0 8 16" fill="none" xmlns="http://www.w3.org/2000/svg">
<path d="M7.45746 8.8759L7.84759 6.17973H5.3898V4.4279C5.32478 3.68885 5.84495 3.03192 6.54717 2.96349C6.6382 2.96349 6.74224 2.96349 6.83327 2.96349H7.95163V0.69159C7.30142 0.582101 6.6382 0.51367 5.97499 0.51367C4.25844 0.376809 2.76297 1.73174 2.61992 3.53831C2.60692 3.7436 2.61992 3.9352 2.61992 4.1405V6.19341H0.370193V8.88958H2.61992V15.3905C3.07507 15.4589 3.54321 15.5 3.99836 15.5C4.46651 15.5 4.92165 15.4589 5.3768 15.3905V8.88958H7.44447L7.45746 8.8759Z" fill="#8462F6"/>
</svg>
