<svg width="36" height="32" viewBox="0 0 36 32" fill="none" xmlns="http://www.w3.org/2000/svg">
<path fill-rule="evenodd" clip-rule="evenodd" d="M9.0253 31.9164H2.97716C2.20798 32.0172 1.42506 31.9347 0.697087 31.6738C0.285026 31.4082 0.0286321 30.9595 0.00116132 30.4742C-0.021731 30.0209 0.294183 29.4715 0.916853 28.3681L15.8518 2.04657C16.4882 0.924848 16.8087 0.370855 17.2162 0.164824C17.6557 -0.0549415 18.1731 -0.0549415 18.608 0.164824C19.0155 0.366277 19.336 0.929427 19.9724 2.04657L23.04 7.40337L23.0537 7.43084C23.5573 8.18628 23.9556 9.00583 24.2395 9.87115C24.4089 10.5717 24.4089 11.2996 24.2395 12.0001C23.9556 12.8746 23.5527 13.7079 23.0445 14.4725L15.2062 28.3361L15.1879 28.3727C14.785 29.2014 14.2722 29.9706 13.6587 30.6574C13.1322 31.161 12.4958 31.5318 11.7998 31.7379C10.8887 31.9164 9.95473 31.9714 9.02988 31.9118" fill="white" fill-opacity="0.6"/>
<path fill-rule="evenodd" clip-rule="evenodd" d="M24.299 31.9164H32.966C33.7443 32.0217 34.5364 31.9347 35.269 31.6646C35.681 31.3945 35.942 30.9458 35.9649 30.4559C35.9878 30.0209 35.681 29.4898 35.0767 28.4505L35.0126 28.3406L30.6722 20.919L30.6218 20.8366C30.0129 19.8064 29.7061 19.2845 29.3078 19.083C28.8729 18.8632 28.3555 18.8632 27.9205 19.083C27.5222 19.2845 27.2017 19.8339 26.5653 20.9281L22.2433 28.3544L22.2295 28.3819C21.5977 29.4761 21.2818 30.0209 21.3047 30.4696C21.3321 30.9595 21.5885 31.4082 22.0006 31.6783C22.7377 31.9393 23.5206 32.0263 24.2944 31.921" fill="white" fill-opacity="0.6"/>
</svg>
