<svg width="32" height="32" viewBox="0 0 32 32" fill="none" xmlns="http://www.w3.org/2000/svg">
<path d="M15.9717 0.0596008L6.17377 9.83919L9.76786 13.4516L13.394 9.83919L14.1586 9.07458L15.9717 7.26151L22.1434 13.4562L25.7375 9.84376L15.9762 0.0641794L15.9717 0.0596008Z" fill="white" fill-opacity="0.6"/>
<path d="M15.9751 12.4137L12.3686 16.0203L15.9751 19.6268L19.5816 16.0203L15.9751 12.4137Z" fill="white" fill-opacity="0.6"/>
<path d="M15.9717 24.7833L13.8061 22.6177L13.4077 22.2193L9.76328 18.6115L6.17377 22.2056L15.9717 31.9852L25.7375 22.2056L22.1434 18.6115L15.9717 24.7878V24.7833Z" fill="white" fill-opacity="0.6"/>
<path d="M3.60653 12.4262L0 16.0327L3.60653 19.6392L7.21306 16.0327L3.60653 12.4262Z" fill="white" fill-opacity="0.6"/>
<path d="M28.3254 12.4245L24.7189 16.031L28.3254 19.6375L31.9319 16.031L28.3254 12.4245Z" fill="white" fill-opacity="0.6"/>
</svg>
