<svg width="15" height="16" viewBox="0 0 15 16" fill="none" xmlns="http://www.w3.org/2000/svg">
<path d="M7.88672 0.5C5.9491 0.5 5.71503 0.5 4.94778 0.541058C4.36259 0.541058 3.7774 0.664234 3.21822 0.883212C2.26892 1.26642 1.50167 2.07391 1.13755 3.07299C0.929483 3.6615 0.812452 4.26369 0.799448 4.89325C0.760435 5.68704 0.760437 5.94708 0.760437 7.98631C0.760437 10.0255 0.760435 10.2719 0.799448 11.0794C0.799448 11.6953 0.929483 12.3111 1.13755 12.8996C1.50167 13.8987 2.26892 14.7062 3.21822 15.0894C3.7774 15.3084 4.36259 15.4316 4.94778 15.4316C5.70202 15.4726 5.9491 15.4726 7.88672 15.4726C9.82434 15.4726 10.0584 15.4726 10.8257 15.4316C11.4108 15.4316 11.996 15.3084 12.5552 15.0894C13.5045 14.6925 14.2588 13.8987 14.6359 12.8996C14.844 12.3111 14.961 11.7089 14.974 11.0794C15.013 10.2856 15.013 10.0255 15.013 7.98631C15.013 5.94708 15.013 5.70073 14.974 4.89325C14.974 4.27737 14.844 3.6615 14.6359 3.07299C14.2718 2.07391 13.5045 1.26642 12.5552 0.883212C11.996 0.664234 11.4108 0.554745 10.8257 0.541058C10.0714 0.5 9.82434 0.5 7.88672 0.5ZM7.24951 1.85493H7.88672C9.78533 1.85493 10.0194 1.85493 10.7606 1.89599C11.2158 1.89599 11.6579 1.99179 12.0871 2.15602C12.7113 2.40237 13.1924 2.92245 13.4395 3.57938C13.5956 4.03102 13.6736 4.49635 13.6866 4.97536C13.7256 5.76916 13.7256 6.00182 13.7256 8C13.7256 9.99818 13.7256 10.2308 13.6866 11.0246C13.6866 11.5036 13.5956 11.969 13.4395 12.4206C13.2054 13.0776 12.7113 13.5839 12.0871 13.844C11.6579 14.0082 11.2158 14.0903 10.7606 14.104C10.0064 14.1451 9.78533 14.1451 7.88672 14.1451C5.98811 14.1451 5.75402 14.1451 5.01279 14.104C4.55764 14.104 4.11551 14.0082 3.68638 13.844C3.06218 13.5976 2.56801 13.0776 2.33393 12.4206C2.17788 11.969 2.09985 11.5036 2.08685 11.0246C2.04784 10.2308 2.04784 9.99818 2.04784 8C2.04784 6.00182 2.04784 5.76916 2.08685 4.97536C2.08685 4.49635 2.17788 4.03102 2.33393 3.57938C2.56801 2.92245 3.06218 2.41606 3.68638 2.15602C4.11551 1.99179 4.55764 1.90967 5.01279 1.89599C5.676 1.86861 5.92308 1.85493 7.24951 1.85493ZM11.6839 3.10036C11.2158 3.10036 10.8257 3.49726 10.8257 4.00365C10.8257 4.51004 11.2028 4.90693 11.6839 4.90693C12.1651 4.90693 12.5422 4.51004 12.5422 4.00365C12.5422 3.51095 12.1651 3.10036 11.6839 3.10036ZM7.88672 4.1542C5.87107 4.1542 4.23255 5.87865 4.23255 8C4.23255 10.1214 5.87107 11.8458 7.88672 11.8458C9.90236 11.8458 11.5409 10.1214 11.5409 8C11.5409 5.87865 9.90236 4.1542 7.88672 4.1542ZM7.88672 5.50912C9.20014 5.50912 10.2535 6.63139 10.2535 8.01369C10.2535 9.39598 9.18714 10.5046 7.87372 10.5046C6.5603 10.5046 5.50695 9.3823 5.50695 8.01369C5.50695 6.64507 6.5733 5.52281 7.87372 5.52281L7.88672 5.50912Z" fill="#8462F6"/>
</svg>
