<svg width="119" height="27" viewBox="0 0 119 27" fill="none" xmlns="http://www.w3.org/2000/svg">
<g clip-path="url(#clip0_180_318)">
<path d="M4.7412 11.5686L1.22288 7.46013C1.02951 7.23449 0.685516 7.20453 0.454489 7.39523C0.325237 7.50206 0.252978 7.66181 0.261119 7.82854L0.760828 18.6563L4.7412 11.5696V11.5686Z" fill="url(#paint0_linear_180_318)"/>
<path d="M25.5804 18.7551L26.0852 7.82654C26.0994 7.53201 25.8664 7.28241 25.5662 7.26843C25.3972 7.26044 25.2334 7.33133 25.1245 7.45813L21.5685 11.6105L25.5814 18.7541L25.5804 18.7551Z" fill="url(#paint1_linear_180_318)"/>
<path d="M25.0166 20.6062L13.6515 0.277572C13.507 0.0189842 13.1762 -0.0758648 12.9116 0.0659094C12.8211 0.114832 12.7457 0.188714 12.6959 0.277572L1.32979 20.6062C1.18527 20.8648 1.28195 21.1903 1.54555 21.332C1.62595 21.375 1.71551 21.3979 1.80711 21.3979L13.1742 21.4149L24.5413 21.3979C24.8426 21.3979 25.0858 21.1583 25.0858 20.8628C25.0858 20.7729 25.0624 20.6851 25.0186 20.6062H25.0166ZM13.1722 18.1411C11.0095 18.1411 9.25592 16.4209 9.25592 14.2992C9.25592 12.1776 11.0095 10.4574 13.1722 10.4574C15.3349 10.4574 17.0884 12.1776 17.0884 14.2992C17.0884 16.4209 15.3349 18.1411 13.1722 18.1411Z" fill="url(#paint2_linear_180_318)"/>
<path d="M25.0542 23.87C25.3128 23.6354 25.329 23.239 25.0889 22.9854C24.9677 22.8576 24.7988 22.7847 24.6207 22.7847H1.72467C1.37253 22.7847 1.08655 23.0653 1.08655 23.4107C1.08655 23.5855 1.16084 23.7522 1.29111 23.87L4.55907 26.8343C4.80332 27.0569 5.1809 27.0569 5.42516 26.8343L8.64935 23.9099C8.89361 23.6873 9.27119 23.6873 9.51544 23.9099L12.7386 26.8343C12.9829 27.0569 13.3605 27.0569 13.6047 26.8343L16.8289 23.9099C17.0732 23.6873 17.4507 23.6873 17.695 23.9099L20.9192 26.8343C21.1634 27.0569 21.541 27.0569 21.7853 26.8343L25.0532 23.87H25.0542Z" fill="url(#paint3_linear_180_318)"/>
</g>
<path d="M34.3129 7.27258H37.0949V12.6909L42.1827 7.27258H45.5902L40.4277 12.5351L45.8049 19.677H42.4628L38.5512 14.3962L37.0856 15.8814V19.677H34.3036V7.27258H34.3129Z" fill="white"/>
<path d="M47.6066 7.27258H50.3886V19.677H47.6066V7.27258Z" fill="white"/>
<path d="M53.5441 7.27258H56.102L62.0207 14.9096V7.27258H64.7653V19.677H62.4034L56.2887 11.7924V19.677H53.5441V7.27258Z" fill="white"/>
<path d="M67.2298 13.5069V13.4702C67.2018 9.95885 70.0772 7.08007 73.6527 7.05257C73.718 7.05257 73.7834 7.05257 73.8487 7.05257C75.6691 6.96089 77.4429 7.56598 78.8058 8.75783L77.0601 10.8298C76.1732 9.99552 74.9876 9.54628 73.7554 9.57379C71.6735 9.66547 70.0492 11.3891 70.1332 13.4336V13.4702C70.0118 15.5147 71.5989 17.275 73.69 17.3942C73.7834 17.3942 73.8674 17.3942 73.9607 17.3942C74.8943 17.4217 75.8092 17.165 76.5747 16.6515V14.8821H73.7834V12.5259H79.2726V17.9167C77.7789 19.1911 75.8558 19.8879 73.8767 19.8787C70.3946 20.0621 67.4259 17.4308 67.2392 14.0111C67.2392 13.8369 67.2298 13.6719 67.2392 13.4977L67.2298 13.5069Z" fill="white"/>
<path d="M82.2973 7.27258H86.8811C89.663 7.27258 91.5768 8.6753 91.5768 11.0682V11.1048C91.5768 13.7269 89.3083 15.0563 86.6477 15.0563H83.2402V19.6862H82.3067V7.27258H82.2973ZM86.7037 14.2037C89.0469 14.2037 90.6339 13.021 90.6339 11.1598V11.1232C90.6339 9.16121 89.0656 8.12521 86.8064 8.12521H83.2309V14.2037H86.6943H86.7037Z" fill="white"/>
<path d="M97.8876 7.18091H98.7931L104.674 19.6678H103.648L102.042 16.1931H94.5922L92.9865 19.6678H92.0156L97.8969 7.18091H97.8876ZM101.64 15.368L98.317 8.1894L94.9749 15.368H101.631H101.64Z" fill="white"/>
<path d="M107.335 7.27258H111.536C115.504 7.27258 118.248 9.94966 118.248 13.4335V13.4702C118.248 16.9632 115.504 19.6678 111.536 19.6678H107.335V7.27258ZM108.278 8.12521V18.8244H111.545C115.065 18.8244 117.287 16.4682 117.287 13.5069V13.4702C117.315 10.5364 114.915 8.14355 111.928 8.11605C111.797 8.11605 111.676 8.11605 111.545 8.12521H108.287H108.278Z" fill="white"/>
<defs>
<linearGradient id="paint0_linear_180_318" x1="-2.64622" y1="9.371" x2="2.57256" y2="10.1886" gradientUnits="userSpaceOnUse">
<stop stop-color="#FFE89B"/>
<stop offset="0.17" stop-color="#FEE091"/>
<stop offset="0.45" stop-color="#FDCD76"/>
<stop offset="0.82" stop-color="#FBAF4C"/>
<stop offset="1" stop-color="#FB9E34"/>
</linearGradient>
<linearGradient id="paint1_linear_180_318" x1="28.6022" y1="10.8491" x2="23.534" y2="11.3757" gradientUnits="userSpaceOnUse">
<stop stop-color="#FFE89B"/>
<stop offset="0.17" stop-color="#FEE091"/>
<stop offset="0.45" stop-color="#FDCD76"/>
<stop offset="0.82" stop-color="#FBAF4C"/>
<stop offset="1" stop-color="#FB9E34"/>
</linearGradient>
<linearGradient id="paint2_linear_180_318" x1="1.19332" y1="10.8129" x2="25.0155" y2="10.8129" gradientUnits="userSpaceOnUse">
<stop stop-color="#FFE89B"/>
<stop offset="0.17" stop-color="#FEE091"/>
<stop offset="0.45" stop-color="#FDCD76"/>
<stop offset="0.82" stop-color="#FBAF4C"/>
<stop offset="1" stop-color="#FB9E34"/>
</linearGradient>
<linearGradient id="paint3_linear_180_318" x1="13.212" y1="22.3208" x2="13.212" y2="24.8506" gradientUnits="userSpaceOnUse">
<stop stop-color="#371378"/>
<stop offset="1" stop-color="#A65BF6"/>
</linearGradient>
<clipPath id="clip0_180_318">
<rect width="25.8261" height="27" fill="white" transform="translate(0.260132)"/>
</clipPath>
</defs>
</svg>
