<svg width="11" height="13" viewBox="0 0 11 13" fill="none" xmlns="http://www.w3.org/2000/svg">
<path d="M1.00047 12.1504C0.748873 12.1504 0.509252 12.0686 0.323546 11.9049C0.143831 11.753 0.0419922 11.5308 0.0419922 11.297V5.10122C0.0419922 4.86742 0.143831 4.6453 0.323546 4.49333C0.509252 4.32967 0.748873 4.23615 1.00047 4.24199H2.1207V2.87424C2.11471 2.13775 2.4382 1.43634 3.0073 0.951198C3.59437 0.419293 4.36714 0.132883 5.16388 0.150418C5.96062 0.132883 6.7334 0.419293 7.32047 0.945353C7.88957 1.42465 8.21904 2.13191 8.20706 2.86839V4.23615H9.32729C9.57889 4.23615 9.8245 4.31798 10.0102 4.48749C10.1899 4.63946 10.2918 4.86157 10.2858 5.09538V11.2912C10.2858 11.525 10.1839 11.7471 10.0042 11.8991C9.81851 12.0627 9.5729 12.1563 9.3213 12.1504H1.00047ZM1.00047 11.2912H9.32729V5.09538H1.00047V11.2912ZM5.16388 9.29216C5.48737 9.29801 5.79888 9.18695 6.0385 8.97653C6.26614 8.78948 6.39793 8.50892 6.39793 8.21666C6.39793 7.91856 6.26614 7.638 6.0385 7.43926C5.55327 6.97166 4.7745 6.97166 4.29526 7.43926C4.06762 7.638 3.94182 7.91856 3.93583 8.21666C3.93583 8.50892 4.06762 8.78948 4.29526 8.97653C4.53488 9.18695 4.84639 9.29801 5.16987 9.29216M3.09116 4.23615H7.25457V2.86839C7.25457 2.36571 7.03891 1.88641 6.64354 1.55324C6.24218 1.19085 5.71501 0.997959 5.16987 1.00965C4.62474 0.997959 4.09757 1.19085 3.69621 1.55324C3.30682 1.88057 3.08517 2.36571 3.09116 2.86839V4.23615Z" fill="#8462F6"/>
</svg>
