<svg width="12" height="15" viewBox="0 0 12 15" fill="none" xmlns="http://www.w3.org/2000/svg">
<g clip-path="url(#clip0_1121_1119)">
<path d="M9.97277 14.4211H2.02218C1.33934 14.4211 0.709428 14.0824 0.333601 13.5107C-0.0369324 12.9496 -0.105746 12.2509 0.148334 11.6315L0.614148 10.0065C1.3711 8.24381 3.05967 7.30688 5.50519 7.30688H6.38389C8.71825 7.30688 10.3115 8.10089 11.1161 9.66771L11.1373 9.72065L11.7831 11.4992C12.0901 12.1238 12.0636 12.8543 11.6984 13.4472C11.3279 14.0559 10.6821 14.4158 9.97277 14.4158V14.4211ZM1.48226 10.3453L1.01644 11.965C0.868229 12.3091 0.905282 12.6849 1.10643 13.0025C1.31287 13.3148 1.64635 13.4948 2.02218 13.4948H9.97277C10.3592 13.4948 10.7085 13.2989 10.9097 12.9708C11.1108 12.6426 11.1267 12.2403 10.952 11.8962L10.9309 11.8433L10.2851 10.0647C9.63929 8.83137 8.3636 8.23322 6.38918 8.23322H5.51049C3.45138 8.23322 2.09628 8.94253 1.48226 10.34V10.3453Z" fill="#8462F6"/>
<path d="M5.99747 7.00526C4.10774 7.00526 2.56738 5.4702 2.56738 3.57518C2.56738 1.68017 4.10774 0.150391 5.99747 0.150391C7.88719 0.150391 9.42226 1.68546 9.42226 3.57518C9.42226 5.4649 7.88719 7.00526 5.99747 7.00526ZM5.99747 1.07672C4.61591 1.07672 3.49372 2.19891 3.49372 3.57518C3.49372 4.95145 4.61591 6.07893 5.99747 6.07893C7.37903 6.07893 8.49592 4.95674 8.49592 3.57518C8.49592 2.19362 7.37903 1.07672 5.99747 1.07672Z" fill="#8462F6"/>
</g>
<defs>
<clipPath id="clip0_1121_1119">
<rect width="12" height="14.2708" fill="white" transform="translate(0 0.150391)"/>
</clipPath>
</defs>
</svg>
