<svg width="12" height="12" viewBox="0 0 12 12" fill="none" xmlns="http://www.w3.org/2000/svg">
<path d="M3.22346 5.27745C3.40223 4.946 3.59218 4.6249 3.79888 4.30381C4 3.98272 4.21788 3.67716 4.44693 3.38196L3.27374 3.15927L1.65363 4.66116L3.22905 5.27745H3.22346ZM10.8771 0.978952C9.93296 1.01003 9 1.212 8.13967 1.57971C7.2514 1.98366 6.44693 2.52745 5.75978 3.18517C5.40224 3.52697 5.0838 3.89986 4.81006 4.29863C4.47486 4.76991 4.18436 5.26191 3.93296 5.77462L5.91061 7.60795C6.46369 7.3749 6.99441 7.1056 7.50279 6.79487C7.93296 6.5411 8.3352 6.2459 8.70391 5.91445C9.41341 5.27745 10 4.53686 10.4358 3.71859C10.8268 2.92104 11.0503 2.06134 11.0838 1.18611C11.0838 1.16021 11.0838 1.12914 11.067 1.10325C11.0559 1.07735 11.0447 1.05146 11.0223 1.03592C11.0056 1.02038 10.9832 1.00485 10.9553 0.994489C10.9274 0.984131 10.8994 0.978952 10.8715 0.978952M7.34637 4.454C7.15084 4.27274 7.04469 4.02933 7.05028 3.77038C7.05028 3.24213 7.51397 2.81229 8.0838 2.81229C8.65363 2.81229 9.11732 3.24213 9.11732 3.77038C9.11732 4.30381 8.64246 4.73366 8.06704 4.72848C7.79888 4.72848 7.5419 4.63008 7.34637 4.454ZM6.44134 8.28639L7.11173 9.73131L8.73184 8.22942L8.50838 7.14185C8.18994 7.35419 7.85475 7.55616 7.50279 7.74778C7.15084 7.9394 6.7933 8.12067 6.44134 8.28639ZM11.9944 0.580176C12.0391 1.66775 11.8324 2.75014 11.3966 3.75485C10.9162 4.78545 10.2235 5.72283 9.35196 6.50485C9.34078 6.5152 9.3352 6.52038 9.32402 6.52556C9.31285 6.53074 9.30168 6.53592 9.29609 6.54628L9.62011 8.0637C9.64804 8.19835 9.64246 8.333 9.60335 8.46247C9.56425 8.59195 9.48603 8.71106 9.37989 8.80946L7.28492 10.7515C7.18436 10.8499 7.03352 10.8914 6.89386 10.8603C6.7486 10.8396 6.6257 10.7412 6.57542 10.6117L5.56425 8.44694L3.05028 6.10607L0.703911 5.18423C0.564246 5.13762 0.463687 5.0185 0.441341 4.87867C0.413408 4.74402 0.458101 4.60419 0.569832 4.50579L2.64804 2.57923C2.7486 2.48084 2.8771 2.40833 3.01676 2.3669C3.15642 2.32547 3.30726 2.32029 3.44693 2.34618L5.0838 2.65174C5.0838 2.65174 5.10056 2.6362 5.11173 2.63102C5.12291 2.62584 5.13408 2.62067 5.13967 2.61031C5.98324 1.8024 6.98883 1.16021 8.10056 0.714828C9.18995 0.305694 10.352 0.114075 11.5196 0.150327C11.581 0.150327 11.6369 0.160685 11.6927 0.186579C11.7486 0.212474 11.8045 0.248726 11.8492 0.290157C11.8939 0.331589 11.933 0.378199 11.9609 0.429988C11.9832 0.476598 12 0.528387 12 0.580176M1.10056 7.77368C1.43575 7.45777 1.89385 7.28168 2.36872 7.28686C2.84358 7.27132 3.30726 7.44741 3.64246 7.76332C3.98324 8.07406 4.1676 8.49872 4.15642 8.93893C4.15642 9.38432 3.97207 9.80899 3.6257 10.1145C3.28492 10.3994 2.87151 10.6014 2.43017 10.7049C1.63128 10.9069 0.821229 11.0571 0 11.1451C0.0949721 10.3838 0.251397 9.62773 0.469274 8.88714C0.581006 8.47283 0.798883 8.08959 1.10056 7.77368ZM1.72626 8.36407C1.55866 8.55569 1.43017 8.77321 1.35754 9.01144C1.22905 9.37914 1.13408 9.7572 1.07263 10.1404C1.48603 10.0835 1.89385 9.99543 2.2905 9.87632C2.54749 9.80899 2.78212 9.68987 2.98883 9.52933C3.17318 9.38432 3.27374 9.17198 3.27933 8.94411C3.29609 8.48837 2.9162 8.10513 2.42458 8.08959C2.40223 8.08959 2.37989 8.08959 2.35754 8.08959C2.11732 8.08959 1.88268 8.18799 1.72626 8.3589" fill="#8462F6"/>
</svg>
