<svg width="28" height="29" viewBox="0 0 28 29" fill="none" xmlns="http://www.w3.org/2000/svg">
<path d="M4.81309 12.4259L1.03416 8.01306C0.826465 7.77071 0.456989 7.73854 0.208849 7.94336C0.0700226 8.0581 -0.00758924 8.22968 0.00115576 8.40877L0.53788 20.0386L4.81309 12.4269V12.4259Z" fill="white"/>
<path d="M27.1958 20.1444L27.738 8.40629C27.7533 8.08994 27.503 7.82185 27.1805 7.80684C26.9991 7.79826 26.8231 7.8744 26.7061 8.01059L22.8867 12.4706L27.1969 20.1433L27.1958 20.1444Z" fill="white"/>
<path d="M26.5904 22.1326L14.3834 0.298126C14.2282 0.0203836 13.8729 -0.0814911 13.5887 0.0707849C13.4914 0.123331 13.4105 0.202686 13.357 0.298126L1.14897 22.1326C0.993742 22.4103 1.09759 22.7599 1.38071 22.9122C1.46707 22.9583 1.56326 22.983 1.66164 22.983L13.8708 23.0012L26.0799 22.983C26.4034 22.983 26.6647 22.7256 26.6647 22.4082C26.6647 22.3117 26.6395 22.2173 26.5925 22.1326H26.5904ZM13.8686 19.4849C11.5457 19.4849 9.66222 17.6372 9.66222 15.3584C9.66222 13.0797 11.5457 11.232 13.8686 11.232C16.1915 11.232 18.0749 13.0797 18.0749 15.3584C18.0749 17.6372 16.1915 19.4849 13.8686 19.4849Z" fill="white"/>
<path d="M26.6308 25.6381C26.9084 25.3861 26.9259 24.9604 26.6679 24.688C26.5379 24.5508 26.3564 24.4725 26.1651 24.4725H1.57308C1.19486 24.4725 0.887695 24.7738 0.887695 25.1448C0.887695 25.3325 0.967493 25.5116 1.10741 25.6381L4.61744 28.822C4.87979 29.0611 5.28534 29.0611 5.54769 28.822L9.0107 25.681C9.27306 25.4419 9.6786 25.4419 9.94095 25.681L13.4029 28.822C13.6652 29.0611 14.0708 29.0611 14.3331 28.822L17.7962 25.681C18.0585 25.4419 18.464 25.4419 18.7264 25.681L22.1894 28.822C22.4518 29.0611 22.8573 29.0611 23.1197 28.822L26.6297 25.6381H26.6308Z" fill="white"/>
</svg>
