<svg width="39" height="35" viewBox="0 0 39 35" fill="none" xmlns="http://www.w3.org/2000/svg">
<path d="M19.42 34.8C18.99 34.8 18.57 34.72 18.17 34.55C17.76 34.37 17.4 34.1 17.12 33.75L0.670002 14C0.310002 13.55 0.0800019 13 0.0200019 12.43C-0.0499981 11.85 0.0600019 11.27 0.320002 10.75L4.57 2.15C4.83 1.66 5.22 1.24 5.7 0.95C6.17 0.65 6.71 0.5 7.27 0.5H31.57C32.13 0.5 32.67 0.65 33.15 0.95C33.63 1.24 34.01 1.66 34.27 2.15L38.52 10.75C38.78 11.27 38.89 11.85 38.82 12.43C38.76 13.01 38.53 13.55 38.17 14L21.72 33.75C21.44 34.1 21.08 34.37 20.67 34.55C20.27 34.72 19.85 34.8 19.42 34.8ZM13.32 11H25.52L21.77 3.5H17.07L13.32 11ZM17.92 30.05V14H4.57L17.92 30.05ZM20.92 30.05L34.27 14H20.92V30.05ZM28.87 11H35.17L31.37 3.5H25.12L28.87 11ZM3.67 11H9.97L13.72 3.5H7.47L3.67 11Z" fill="#2C1264"/>
</svg>
