<svg width="118" height="27" viewBox="0 0 118 27" fill="none" xmlns="http://www.w3.org/2000/svg">
<g clip-path="url(#clip0_188_1238)">
<path d="M4.48119 11.5686L0.962871 7.46013C0.769501 7.23449 0.425506 7.20453 0.19448 7.39523C0.0652271 7.50206 -0.00703217 7.66181 0.00110973 7.82854L0.500818 18.6563L4.48119 11.5696V11.5686Z" fill="white"/>
<path d="M25.3204 18.7551L25.8252 7.82654C25.8394 7.53201 25.6064 7.28241 25.3061 7.26843C25.1372 7.26044 24.9733 7.33133 24.8644 7.45813L21.3085 11.6105L25.3214 18.7541L25.3204 18.7551Z" fill="white"/>
<path d="M24.7565 20.6062L13.3914 0.277572C13.2469 0.0189842 12.9161 -0.0758648 12.6515 0.0659094C12.5609 0.114832 12.4856 0.188714 12.4357 0.277572L1.06966 20.6062C0.925137 20.8648 1.02182 21.1903 1.28542 21.332C1.36582 21.375 1.45538 21.3979 1.54697 21.3979L12.9141 21.4149L24.2812 21.3979C24.5824 21.3979 24.8257 21.1583 24.8257 20.8628C24.8257 20.7729 24.8023 20.6851 24.7585 20.6062H24.7565ZM12.912 18.1411C10.7493 18.1411 8.99579 16.4209 8.99579 14.2992C8.99579 12.1776 10.7493 10.4574 12.912 10.4574C15.0747 10.4574 16.8283 12.1776 16.8283 14.2992C16.8283 16.4209 15.0747 18.1411 12.912 18.1411Z" fill="white"/>
<path d="M24.7941 23.87C25.0526 23.6354 25.0689 23.239 24.8287 22.9854C24.7076 22.8576 24.5387 22.7847 24.3606 22.7847H1.46454C1.1124 22.7847 0.826416 23.0653 0.826416 23.4107C0.826416 23.5855 0.900711 23.7522 1.03098 23.87L4.29893 26.8343C4.54319 27.0569 4.92077 27.0569 5.16503 26.8343L8.38922 23.9099C8.63347 23.6873 9.01105 23.6873 9.25531 23.9099L12.4785 26.8343C12.7227 27.0569 13.1003 27.0569 13.3446 26.8343L16.5688 23.9099C16.813 23.6873 17.1906 23.6873 17.4349 23.9099L20.6591 26.8343C20.9033 27.0569 21.2809 27.0569 21.5251 26.8343L24.7931 23.87H24.7941Z" fill="white"/>
</g>
<path d="M34.0528 7.27255H36.8348V12.6909L41.9226 7.27255H45.3301L40.1675 12.535L45.5448 19.677H42.2027L38.2911 14.3962L36.8254 15.8814V19.677H34.0435V7.27255H34.0528Z" fill="white"/>
<path d="M47.3464 7.27255H50.1284V19.677H47.3464V7.27255Z" fill="white"/>
<path d="M53.2839 7.27255H55.8419L61.7606 14.9096V7.27255H64.5052V19.677H62.1433L56.0286 11.7924V19.677H53.2839V7.27255Z" fill="white"/>
<path d="M66.9697 13.5069V13.4702C66.9417 9.95882 69.817 7.08004 73.3925 7.05254C73.4578 7.05254 73.5232 7.05254 73.5885 7.05254C75.409 6.96086 77.1827 7.56595 78.5457 8.7578L76.8 10.8298C75.9131 9.99549 74.7275 9.54625 73.4952 9.57376C71.4134 9.66544 69.789 11.389 69.873 13.4335V13.4702C69.7517 15.5147 71.3387 17.2749 73.4298 17.3941C73.5232 17.3941 73.6072 17.3941 73.7006 17.3941C74.6341 17.4216 75.549 17.1649 76.3145 16.6515V14.8821H73.5232V12.5259H79.0125V17.9167C77.5188 19.1911 75.5957 19.8878 73.6166 19.8787C70.1344 20.062 67.1657 17.4308 66.979 14.0111C66.979 13.8369 66.9697 13.6719 66.979 13.4977L66.9697 13.5069Z" fill="white"/>
<path d="M82.0372 7.27255H86.6209C89.4029 7.27255 91.3167 8.67527 91.3167 11.0681V11.1048C91.3167 13.7269 89.0482 15.0563 86.3876 15.0563H82.9801V19.6861H82.0466V7.27255H82.0372ZM86.4436 14.2036C88.7868 14.2036 90.3738 13.0209 90.3738 11.1598V11.1231C90.3738 9.16118 88.8054 8.12518 86.5463 8.12518H82.9708V14.2036H86.4342H86.4436Z" fill="white"/>
<path d="M97.6274 7.18088H98.5329L104.414 19.6678H103.387L101.782 16.1931H94.332L92.7263 19.6678H91.7554L97.6367 7.18088H97.6274ZM101.38 15.368L98.0568 8.18937L94.7147 15.368H101.371H101.38Z" fill="white"/>
<path d="M107.075 7.27255H111.276C115.243 7.27255 117.988 9.94963 117.988 13.4335V13.4702C117.988 16.9632 115.243 19.6678 111.276 19.6678H107.075V7.27255ZM108.018 8.12518V18.8243H111.285C114.805 18.8243 117.027 16.4681 117.027 13.5068V13.4702C117.055 10.5364 114.655 8.14352 111.668 8.11602C111.537 8.11602 111.416 8.11602 111.285 8.12518H108.027H108.018Z" fill="white"/>
<defs>
<clipPath id="clip0_188_1238">
<rect width="25.8261" height="27" fill="white"/>
</clipPath>
</defs>
</svg>
