<svg width="36" height="35" viewBox="0 0 36 35" fill="none" xmlns="http://www.w3.org/2000/svg">
<path d="M9.96001 29.9L17.81 25.2L25.66 29.95L23.56 21.05L30.46 15.05L21.36 14.25L17.81 5.85L14.26 14.2L5.16001 15L12.06 21L9.96001 29.9ZM17.81 28.7L8.51001 34.3C8.26001 34.46 7.96001 34.54 7.66001 34.52C7.37001 34.51 7.09001 34.41 6.86001 34.24C6.63001 34.08 6.45001 33.85 6.33001 33.59C6.21001 33.31 6.19001 32.99 6.26001 32.69L8.71001 22.09L0.51001 14.95C0.27001 14.75 0.10001 14.48 0.0400095 14.18C-0.00999049 13.91 9.51067e-06 13.63 0.0600095 13.36C0.13001 13.09 0.29001 12.85 0.51001 12.68C0.76001 12.49 1.05001 12.38 1.36001 12.36L12.21 11.41L16.41 1.4C16.53 1.11 16.74 0.879995 17.01 0.719995C17.5 0.419995 18.12 0.419995 18.61 0.719995C18.88 0.869995 19.09 1.11 19.21 1.4L23.41 11.4L34.26 12.35C34.57 12.37 34.86 12.49 35.11 12.67C35.33 12.84 35.49 13.08 35.56 13.35C35.63 13.62 35.64 13.9 35.59 14.17C35.53 14.48 35.36 14.75 35.12 14.94L26.92 22.09L29.37 32.69C29.44 32.99 29.41 33.31 29.29 33.59C29.18 33.85 29 34.08 28.77 34.24C28.54 34.41 28.26 34.5 27.97 34.52C27.67 34.54 27.37 34.46 27.12 34.3L17.82 28.7H17.81Z" fill="#F3D386"/>
</svg>
