<svg width="30" height="21" viewBox="0 0 30 21" fill="none" xmlns="http://www.w3.org/2000/svg">
<path d="M16.5313 10.455C16.4997 14.9195 12.8387 18.5142 8.36765 18.4827C3.88608 18.4513 0.277666 14.8042 0.309226 10.3502C0.340787 5.90666 3.95972 2.32248 8.42026 2.32248C12.9124 2.33296 16.5523 5.98002 16.5313 10.455Z" fill="#8462F6"/>
<path d="M25.4313 10.455C25.4313 14.6889 23.6113 18.1159 21.3706 18.1159C19.1298 18.1159 17.3098 14.6889 17.3098 10.455C17.3098 6.22106 19.1298 2.79408 21.3706 2.79408C23.6113 2.79408 25.4313 6.22106 25.4313 10.455Z" fill="#8462F6"/>
<path d="M29.0713 10.455C29.0713 14.2488 28.4295 17.3194 27.6405 17.3194C26.8515 17.3194 26.2098 14.2383 26.2098 10.455C26.2098 6.6717 26.8515 3.59056 27.6405 3.59056C28.4295 3.59056 29.0713 6.66122 29.0713 10.455Z" fill="#8462F6"/>
</svg>
