<svg width="29" height="32" viewBox="0 0 29 32" fill="none" xmlns="http://www.w3.org/2000/svg">
<path d="M27.0404 7.00027L15.5164 0.370661C14.6831 -0.0414003 13.7033 -0.0414003 12.87 0.370661C12.7785 0.421024 1.66656 6.86749 1.66656 6.86749C0.695925 7.33449 0.0549415 8.29597 0 9.37191V24.229L3.11335 26.0238L13.479 9.40396L11.7208 9.35817C10.2237 9.33528 8.6075 9.72903 7.86579 10.9377L1.97789 20.058L1.95958 9.46805C1.97789 9.17503 2.12898 8.9049 2.36706 8.73092C2.422 8.69429 13.7216 2.15168 13.7583 2.13337C14.033 2.00059 14.3535 2.00059 14.6282 2.13337L26.0056 8.6714C26.2758 8.84081 26.4452 9.13383 26.4589 9.44974V20.5342L20.1589 10.718L17.8194 14.6967L23.9179 24.5632L26.1201 23.2858L23.9133 24.5632L22.7778 25.2225L18.7122 27.5804L14.587 29.9704C14.358 30.0528 14.1108 30.0482 13.8865 29.9566L9.00582 27.1546L19.4676 9.40396L14.8296 9.42227L4.34496 26.7288L8.0123 28.8395L12.3985 31.3622L12.7785 31.5774C12.9433 31.669 13.0532 31.7331 13.0944 31.7514C13.4607 31.9117 13.859 31.9941 14.2573 31.9895C14.6236 31.9895 14.9899 31.9208 15.3333 31.788L27.3151 24.8471C27.9973 24.316 28.4139 23.5056 28.446 22.6403V9.37649C28.4047 8.40585 27.8828 7.51763 27.0587 7.00485" fill="white" fill-opacity="0.6"/>
</svg>
