<svg width="37" height="32" viewBox="0 0 37 32" fill="none" xmlns="http://www.w3.org/2000/svg">
<path d="M27.4713 9.82082C26.7616 9.44081 25.91 9.44081 25.1958 9.82082L19.8894 12.9479L16.2861 14.9395L11.0758 18.0666C10.3662 18.4466 9.51458 18.4466 8.80492 18.0666L4.73009 15.6034C4.02501 15.1868 3.59006 14.4268 3.59463 13.6118V8.87766C3.59921 8.0627 4.02959 7.30725 4.73009 6.89061L8.80492 4.52355C9.51458 4.14354 10.3662 4.14354 11.0758 4.52355L15.1507 6.98676C15.8557 7.4034 16.2861 8.15884 16.2861 8.97381V12.1009L19.8848 10.0177V6.79446C19.8802 5.9795 19.4498 5.22405 18.7493 4.80741L11.1766 0.357153C10.4669 -0.0228594 9.61531 -0.0228594 8.90107 0.357153L1.136 4.90356C0.426342 5.26526 -0.0177683 6.00239 0.000545514 6.79904V15.7041C0.00970243 16.5191 0.440077 17.27 1.136 17.6912L8.8095 22.1415C9.51916 22.5215 10.3708 22.5215 11.0804 22.1415L16.2861 19.1151L19.8848 17.0319L25.0951 14.001C25.8047 13.6209 26.6563 13.6209 27.3706 14.001L31.4454 16.368C32.1505 16.7847 32.5808 17.5401 32.5808 18.3596V23.0984C32.5717 23.9133 32.1413 24.6688 31.4454 25.0854L27.4713 27.4525C26.7616 27.8325 25.91 27.8325 25.1958 27.4525L21.121 25.0854C20.4159 24.6688 19.9855 23.9133 19.9855 23.0984V20.0674L16.3914 22.1506V25.2777C16.396 26.0927 16.8264 26.8435 17.5223 27.2647L25.1958 31.715C25.9055 32.095 26.757 32.095 27.4713 31.715L35.1448 27.2647C35.8499 26.8481 36.2802 26.0927 36.2802 25.2731V16.2765C36.2757 15.4615 35.8453 14.706 35.1448 14.2848L27.4713 9.83456V9.82082Z" fill="white" fill-opacity="0.6"/>
</svg>
