<svg width="26" height="32" viewBox="0 0 26 32" fill="none" xmlns="http://www.w3.org/2000/svg">
<path d="M11.2126 0.36625C12.078 -0.0412322 13.0807 -0.0412322 13.9506 0.36625L21.8667 4.52807C22.2696 4.71121 22.5626 5.07748 22.6359 5.51702H22.645V26.4314C22.6084 26.9121 22.3062 27.3288 21.8667 27.5211L13.9506 31.6783C13.0852 32.0858 12.0825 32.0858 11.2172 31.6783L3.29649 27.5165C2.86154 27.3242 2.56851 26.9076 2.53647 26.4314V5.51702C2.60056 5.07748 2.88443 4.70205 3.29191 4.52807L11.2126 0.36625ZM21.3951 17.1829L13.9506 21.0975C13.0852 21.505 12.0825 21.505 11.2172 21.0975L3.78638 17.1921V26.3856L11.2172 30.2727C11.6064 30.5154 12.0459 30.6756 12.4992 30.7397H12.5816C13.044 30.694 13.4927 30.5474 13.891 30.3048L21.3951 26.349V17.1783V17.1829ZM1.24992 25.9736C1.21329 26.555 1.30944 27.1365 1.5292 27.6722C1.71692 28.0156 1.99621 28.304 2.33501 28.5009L2.35791 28.5192C2.44948 28.5833 2.5502 28.6474 2.6784 28.7206L2.82491 28.8122L3.2736 29.0823L2.62804 30.1445L2.1244 29.8378L2.03741 29.792C1.8909 29.7004 1.77186 29.6272 1.6574 29.5493C0.457846 28.739 0.00915691 27.8553 0 26.0285V25.9736H1.24534H1.24992ZM11.9589 11.5789C11.904 11.5972 11.849 11.6201 11.7987 11.6476L3.88253 15.8094L3.85964 15.8231H3.85506L3.8688 15.8323L3.88711 15.8414L11.8033 20.0033C11.8536 20.0307 11.9086 20.0536 11.9635 20.0719V11.5835L11.9589 11.5789ZM13.2043 11.5789V20.0674C13.2592 20.049 13.3142 20.0261 13.3645 19.9987L21.2807 15.8414L21.3036 15.8277H21.3081L21.2944 15.8185L21.2761 15.8094L13.3599 11.6476C13.3096 11.6201 13.2546 11.5972 13.1997 11.5789M21.3906 6.99586L14.2894 10.7273L21.3906 14.4587V6.99586ZM3.77723 7.00501V14.4496L10.8647 10.7273L3.77723 7.00501ZM13.3599 1.4605C12.8609 1.24531 12.2932 1.24531 11.7941 1.4605L3.87795 5.62232L3.85506 5.63606H3.85048L3.86422 5.64521L3.88253 5.65437L11.7987 9.81619C12.2977 10.0314 12.8655 10.0314 13.3645 9.81619L21.2807 5.66353L21.3036 5.64979H21.3081L21.2944 5.64063L21.2761 5.62232L13.3554 1.4605H13.3599ZM22.5581 1.91835L23.0617 2.2251L23.1441 2.27547C23.2906 2.36704 23.4097 2.44029 23.5241 2.51813C24.7282 3.32393 25.1769 4.203 25.1815 6.03438V6.08932H23.9362C23.9728 5.50786 23.8767 4.92639 23.6569 4.39072C23.4692 4.04733 23.1899 3.75889 22.8511 3.56201L22.8282 3.5437C22.7366 3.4796 22.6359 3.4155 22.5077 3.34225L22.3612 3.25526L21.9125 2.98513L22.5581 1.92293V1.91835Z" fill="white" fill-opacity="0.6"/>
</svg>
