<svg width="25" height="21" viewBox="0 0 25 21" fill="none" xmlns="http://www.w3.org/2000/svg">
<path d="M5.94108 12.0142L0.483643 10.2299C0.483643 10.2299 -0.167814 9.96458 0.0414266 9.36241C0.084524 9.23834 0.171656 9.13276 0.432426 8.95042C1.64165 8.10513 22.8165 0.469637 22.8165 0.469637C22.8165 0.469637 23.4146 0.267557 23.7678 0.401964C23.9292 0.463371 24.0323 0.532611 24.1191 0.786073C24.1507 0.878183 24.1688 1.07431 24.1666 1.26918C24.165 1.40986 24.1475 1.54019 24.135 1.74446C24.0061 3.832 20.1473 19.4119 20.1473 19.4119C20.1473 19.4119 19.9165 20.3236 19.0889 20.3546C18.7872 20.3659 18.4212 20.3045 17.9834 19.927C16.36 18.5259 10.7486 14.7427 9.50879 13.9106C9.43915 13.8639 9.41916 13.8028 9.40729 13.7433C9.38981 13.6556 9.48474 13.5469 9.48474 13.5469C9.48474 13.5469 19.2557 4.83362 19.5155 3.91941C19.5355 3.8486 19.4599 3.81351 19.3575 3.84422C18.7085 4.08358 7.45854 11.2103 6.21715 11.9973C6.14439 12.0433 5.94108 12.0142 5.94108 12.0142Z" fill="#8462F6"/>
</svg>
