<svg width="34" height="35" viewBox="0 0 34 35" fill="none" xmlns="http://www.w3.org/2000/svg">
<g clip-path="url(#clip0_1044_444)">
<path d="M17.0001 34.0135C26.1203 34.0135 33.5136 26.6202 33.5136 17.5C33.5136 8.3799 26.1203 0.986572 17.0001 0.986572C7.87998 0.986572 0.486649 8.3799 0.486649 17.5C0.486649 26.6202 7.87998 34.0135 17.0001 34.0135Z" fill="url(#paint0_linear_1044_444)"/>
<path d="M11.7002 18.9005L7.67061 17.5875C7.67061 17.5875 7.18959 17.3922 7.34409 16.949C7.37591 16.8577 7.44025 16.7799 7.63279 16.6457C8.52588 16.0234 24.1608 10.4036 24.1608 10.4036C24.1608 10.4036 24.6024 10.2549 24.8632 10.3538C24.9824 10.399 25.0585 10.4499 25.1226 10.6365C25.1459 10.7043 25.1593 10.8486 25.1576 10.9921C25.1565 11.0956 25.1436 11.1915 25.1344 11.3419C25.0391 12.8783 22.1899 24.3452 22.1899 24.3452C22.1899 24.3452 22.0195 25.0163 21.4084 25.0391C21.1857 25.0474 20.9154 25.0022 20.5921 24.7243C19.3935 23.6931 15.2502 20.9087 14.3348 20.2963C14.2833 20.2619 14.2686 20.2169 14.2598 20.1731C14.2469 20.1086 14.317 20.0285 14.317 20.0285C14.317 20.0285 21.5316 13.6155 21.7234 12.9426C21.7382 12.8905 21.6824 12.8647 21.6067 12.8873C21.1276 13.0635 12.8209 18.3088 11.9043 18.888C11.8506 18.9219 11.7002 18.9 11.7002 18.9V18.9005Z" fill="white"/>
</g>
<defs>
<linearGradient id="paint0_linear_1044_444" x1="17.0001" y1="34.0133" x2="17.0001" y2="0.986572" gradientUnits="userSpaceOnUse">
<stop stop-color="#0093D4"/>
<stop offset="1" stop-color="#00B0E5"/>
</linearGradient>
<clipPath id="clip0_1044_444">
<rect width="33.0267" height="33.0267" fill="white" transform="translate(0.486649 0.986572)"/>
</clipPath>
</defs>
</svg>
