<svg width="26" height="21" viewBox="0 0 26 21" fill="none" xmlns="http://www.w3.org/2000/svg">
<path d="M25.5716 2.69639C24.6247 3.10512 23.6253 3.3776 22.6049 3.49288C23.6779 2.86408 24.488 1.87895 24.8772 0.694705C23.8568 1.28159 22.7522 1.70079 21.6055 1.92087C20.6166 0.904306 19.2595 0.327903 17.8393 0.327903C15.0199 0.306943 12.7054 2.57063 12.6844 5.37929C12.6844 5.76705 12.7265 6.15481 12.8212 6.53209C8.68674 6.34345 4.82585 4.4256 2.1853 1.25015C1.72241 2.01519 1.49097 2.89552 1.49097 3.78632C1.49097 5.48409 2.35362 7.06658 3.78436 7.98882C2.96379 7.96786 2.16426 7.74778 1.44889 7.36002V7.4229C1.46993 9.84379 3.19523 11.9188 5.5833 12.38C4.82585 12.5791 4.02632 12.6105 3.24783 12.4638C3.94216 14.5389 5.87787 15.9432 8.06605 15.9746C6.22503 17.3789 3.97372 18.144 1.65929 18.1335C1.24901 18.1335 0.838722 18.1126 0.428436 18.0602C2.79547 19.5483 5.54122 20.3343 8.33958 20.3343C16.3138 20.4601 22.8889 14.1197 23.0152 6.17577C23.0152 6.10241 23.0152 6.02905 23.0152 5.96617C23.0152 5.74609 23.0152 5.52601 22.9941 5.31641C24.0041 4.60376 24.8772 3.72344 25.5716 2.70688" fill="#8462F6"/>
</svg>
