<svg width="15" height="15" viewBox="0 0 15 15" fill="none" xmlns="http://www.w3.org/2000/svg">
<path d="M7.34 15.0007C6.35 15.0007 5.37 14.8107 4.46 14.4207C3.59 14.0507 2.8 13.5207 2.13 12.8507C1.46 12.1807 0.93 11.3907 0.57 10.5207C0.19 9.60069 0 8.62069 0 7.62069C0 6.64069 0.19 5.66069 0.57 4.75069C0.94 3.88069 1.47 3.09069 2.13 2.43069C2.8 1.77069 3.59 1.24069 4.46 0.880688C5.37 0.500688 6.35 0.310688 7.34 0.320688C8.33 0.320688 9.31 0.500688 10.22 0.880688C11.09 1.24069 11.88 1.77069 12.55 2.43069C13.21 3.10069 13.74 3.88069 14.11 4.75069C14.49 5.66069 14.69 6.63069 14.68 7.62069C14.68 8.61069 14.49 9.60069 14.11 10.5107C13.75 11.3807 13.22 12.1807 12.55 12.8507C11.88 13.5207 11.09 14.0507 10.22 14.4207C9.31 14.8107 8.33 15.0107 7.34 15.0007ZM7.34 13.9407C7.77 13.4907 8.13 12.9807 8.41 12.4307C8.72 11.7807 8.96 11.1007 9.12 10.4007H5.58C5.73 11.0807 5.96 11.7507 6.27 12.3807C6.55 12.9507 6.91 13.4807 7.34 13.9407ZM5.78 13.7207C5.47 13.2507 5.21 12.7407 4.99 12.2207C4.75 11.6307 4.57 11.0207 4.44 10.4007H1.69C2.09 11.1807 2.63 11.8807 3.3 12.4507C4.05 13.0207 4.89 13.4507 5.78 13.7307M8.92 13.7107C9.78 13.4407 10.59 13.0107 11.3 12.4407C12 11.8807 12.58 11.1907 13 10.4007H10.26C10.12 11.0107 9.93 11.6107 9.7 12.2007C9.49 12.7307 9.23 13.2307 8.92 13.7007M1.32 9.30069H4.24C4.2 8.97069 4.18 8.67069 4.18 8.41069C4.18 8.15069 4.18 7.89069 4.18 7.62069C4.18 7.31069 4.18 7.04069 4.2 6.80069C4.22 6.56069 4.24 6.29069 4.27 6.00069H1.32C1.24 6.26069 1.18 6.52069 1.15 6.79069C1.12 7.06069 1.1 7.34069 1.1 7.62069C1.1 7.90069 1.11 8.19069 1.15 8.47069C1.19 8.75069 1.24 9.02069 1.32 9.29069M5.38 9.29069H9.33C9.38 8.91069 9.41 8.60069 9.42 8.36069C9.43 8.12069 9.44 7.87069 9.44 7.62069C9.44 7.37069 9.44 7.14069 9.42 6.91069C9.4 6.68069 9.38 6.38069 9.33 6.01069H5.38C5.33 6.39069 5.3 6.69069 5.29 6.92069C5.28 7.15069 5.27 7.38069 5.27 7.62069C5.27 7.88069 5.27 8.12069 5.29 8.36069C5.3 8.60069 5.33 8.91069 5.38 9.29069ZM10.43 9.29069H13.37C13.45 9.02069 13.51 8.75069 13.54 8.47069C13.57 8.19069 13.59 7.90069 13.59 7.62069C13.59 7.34069 13.58 7.07069 13.54 6.79069C13.5 6.52069 13.44 6.26069 13.37 6.00069H10.45C10.49 6.43069 10.51 6.76069 10.52 6.98069C10.53 7.21069 10.54 7.42069 10.54 7.61069C10.54 7.88069 10.54 8.13069 10.51 8.37069C10.49 8.61069 10.46 8.91069 10.43 9.28069M10.25 4.89069H13C12.61 4.07069 12.05 3.35069 11.34 2.78069C10.62 2.21069 9.8 1.81069 8.91 1.59069C9.22 2.05069 9.48 2.54069 9.69 3.06069C9.93 3.66069 10.11 4.27069 10.25 4.90069M5.59 4.90069H9.15C9.01 4.24069 8.78 3.61069 8.47 3.02069C8.17 2.44069 7.79 1.90069 7.35 1.41069C6.93 1.77069 6.6 2.21069 6.36 2.71069C6.03 3.41069 5.77 4.14069 5.59 4.89069M1.7 4.89069H4.47C4.59 4.29069 4.76 3.69069 4.98 3.12069C5.19 2.59069 5.46 2.08069 5.77 1.61069C4.89 1.82069 4.08 2.22069 3.37 2.78069C2.67 3.35069 2.1 4.07069 1.7 4.89069Z" fill="#8462F6"/>
</svg>
