<svg width="22" height="16" viewBox="0 0 22 16" fill="none" xmlns="http://www.w3.org/2000/svg">
<mask id="mask0_467_260" style="mask-type:luminance" maskUnits="userSpaceOnUse" x="0" y="0" width="22" height="16">
<path d="M21.85 0.540649H0.869995V15.2206H21.85V0.540649Z" fill="white"/>
</mask>
<g mask="url(#mask0_467_260)">
<path d="M21.41 2.83065C21.17 1.93065 20.46 1.22065 19.56 0.970649C17.92 0.540649 11.36 0.540649 11.36 0.540649C11.36 0.540649 4.80001 0.540649 3.16001 0.980649C2.26001 1.23065 1.55 1.93065 1.31 2.84065C1.01 4.51065 0.860006 6.20065 0.870006 7.89065C0.860006 9.58065 1.01 11.2706 1.31 12.9406C1.55 13.8406 2.26 14.5506 3.17 14.8006C4.81 15.2406 11.37 15.2406 11.37 15.2406C11.37 15.2406 17.93 15.2406 19.57 14.8006C20.47 14.5606 21.18 13.8506 21.42 12.9506C21.72 11.2806 21.87 9.59065 21.86 7.90065C21.87 6.21065 21.72 4.52065 21.42 2.85065M9.27 11.0506V4.75065L14.72 7.90065L9.27 11.0506Z" fill="#8462F6"/>
</g>
</svg>
