<svg width="30" height="22" viewBox="0 0 30 22" fill="none" xmlns="http://www.w3.org/2000/svg">
<path d="M28.0892 3.12306C27.7525 1.88641 26.7847 0.922245 25.5538 0.597363C23.3235 0 14.3499 0 14.3499 0C14.3499 0 5.37619 0 3.1354 0.597363C1.89402 0.932725 0.926166 1.89689 0.600042 3.12306C0.189757 5.39723 -0.0101256 7.69236 0.000394506 9.99797C-0.0101256 12.3036 0.189757 14.6092 0.600042 16.8834C0.936686 18.12 1.90454 19.0842 3.1354 19.4091C5.37619 20.0064 14.3499 20.0064 14.3499 20.0064C14.3499 20.0064 23.3235 20.0064 25.5643 19.4091C26.8057 19.0737 27.7736 18.1095 28.0997 16.8834C28.51 14.6092 28.7098 12.3141 28.6993 9.99797C28.7098 7.69236 28.51 5.38675 28.0997 3.11258M11.4884 14.2843V5.71163L18.9472 9.99797L11.4884 14.2843Z" fill="#8462F6"/>
</svg>
